<svg height="700" width="1000" xmlns="http://www.w3.org/2000/svg">
  <g>
     <polygon onclick="alert('Area: 2303.5')" points="356,440 358,474 423,483 418,478 423,444 " style="fill:rgb(219,192,122)"/>
    <title>Area: 2303.5</title>
  </g>
  <g>
     <polygon onclick="alert('Area: 916.5')" points="393,441 423,445 420,472 390,469 " style="fill:rgb(238,127,151)"/>
    <title>Area: 916.5</title>
  </g>
  <g>
     <polygon onclick="alert('Area: 1337.0')" points="356,441 391,443 389,470 360,469 421,474 360,475 " style="fill:rgb(208,236,98)"/>
    <title>Area: 1337.0</title>
  </g>
  <g>
     <polygon onclick="alert('Area: 2968.0')" points="592,353 515,354 510,396 514,387 546,388 587,410 575,403 590,406 " style="fill:rgb(234,238,36)"/>
    <title>Area: 2968.0</title>
  </g>
  <g>
     <polygon onclick="alert('Area: 3270.0')" points="598,352 595,409 632,410 621,415 654,407 657,355 " style="fill:rgb(239,245,25)"/>
    <title>Area: 3270.0</title>
  </g>
  <g>
     <polygon onclick="alert('Area: 2798.0')" points="613,355 654,356 653,407 595,408 596,382 611,380 " style="fill:rgb(246,248,8)"/>
    <title>Area: 2798.0</title>
  </g>
  <g>
     <polygon onclick="alert('Area: 379.0')" points="599,354 612,356 610,380 596,379 596,364 " style="fill:rgb(234,234,122)"/>
    <title>Area: 379.0</title>
  </g>
  <g>
     <polygon onclick="alert('Area: 448.5')" points="598,345 598,350 660,354 658,344 " style="fill:rgb(134,237,36)"/>
    <title>Area: 448.5</title>
  </g>
  <g>
     <polygon onclick="alert('Area: 4993.0')" points="325,342 353,431 424,435 394,368 327,356 392,370 381,342 336,338 380,342 391,368 " style="fill:rgb(231,240,32)"/>
    <title>Area: 4993.0</title>
  </g>
  <g>
     <polygon onclick="alert('Area: 451.0')" points="347,410 369,409 369,431 354,431 349,423 " style="fill:rgb(235,236,123)"/>
    <title>Area: 451.0</title>
  </g>
  <g>
     <polygon onclick="alert('Area: 3757.0')" points="333,366 363,366 410,395 425,433 370,432 370,410 346,408 " style="fill:rgb(248,248,8)"/>
    <title>Area: 3757.0</title>
  </g>
  <g>
     <polygon onclick="alert('Area: 123.0')" points="357,364 369,366 405,391 " style="fill:rgb(174,164,156)"/>
    <title>Area: 123.0</title>
  </g>
  <g>
     <polygon onclick="alert('Area: 477.0')" points="330,359 364,357 407,389 355,359 " style="fill:rgb(111,209,26)"/>
    <title>Area: 477.0</title>
  </g>
  <g>
     <polygon onclick="alert('Area: 275.0')" points="584,318 581,320 578,337 579,339 594,339 594,325 597,324 594,320 585,320 " style="fill:rgb(226,16,15)"/>
    <title>Area: 275.0</title>
  </g>
  <g>
     <polygon onclick="alert('Area: 157.0')" points="586,299 594,299 596,302 594,299 586,299 582,314 586,317 587,315 595,316 596,305 585,303 " style="fill:rgb(210,59,29)"/>
    <title>Area: 157.0</title>
  </g>
  <g>
     <polygon onclick="alert('Area: 154.5')" points="585,303 594,303 596,305 594,316 587,315 584,316 582,314 " style="fill:rgb(224,29,20)"/>
    <title>Area: 154.5</title>
  </g>
  <g>
     <polygon onclick="alert('Area: 2918.0')" points="515,299 515,350 573,349 517,340 574,339 579,299 " style="fill:rgb(209,239,13)"/>
    <title>Area: 2918.0</title>
  </g>
  <g>
     <polygon onclick="alert('Area: 411.0')" points="515,344 572,343 573,349 534,352 516,350 " style="fill:rgb(118,224,12)"/>
    <title>Area: 411.0</title>
  </g>
  <g>
     <polygon onclick="alert('Area: 2492.5')" points="515,300 579,299 519,305 519,336 521,303 579,303 575,337 517,339 " style="fill:rgb(162,220,35)"/>
    <title>Area: 2492.5</title>
  </g>
  <g>
     <polygon onclick="alert('Area: 8061.5')" points="380,311 420,394 508,404 507,299 456,299 508,301 506,396 495,311 395,323 428,387 385,328 454,299 " style="fill:rgb(97,211,128)"/>
    <title>Area: 8061.5</title>
  </g>
  <g>
     <polygon onclick="alert('Area: 622.5')" points="419,390 462,394 469,400 487,396 508,404 470,406 " style="fill:rgb(124,232,37)"/>
    <title>Area: 622.5</title>
  </g>
  <g>
     <polygon onclick="alert('Area: 272.5')" points="402,306 402,312 394,317 392,322 385,328 380,311 " style="fill:rgb(209,186,115)"/>
    <title>Area: 272.5</title>
  </g>
  <g>
     <polygon onclick="alert('Area: 6829.0')" points="395,324 494,311 495,392 508,398 418,389 438,385 435,370 399,350 " style="fill:rgb(14,247,244)"/>
    <title>Area: 6829.0</title>
  </g>
  <g>
     <polygon onclick="alert('Area: 194.5')" points="408,305 417,301 422,310 431,315 426,318 420,318 409,309 " style="fill:rgb(220,29,117)"/>
    <title>Area: 194.5</title>
  </g>
  <g>
     <polygon onclick="alert('Area: 2412.0')" points="666,298 601,300 599,339 658,340 " style="fill:rgb(227,243,8)"/>
    <title>Area: 2412.0</title>
  </g>
  <g>
     <polygon onclick="alert('Area: 2037.5')" points="601,305 658,304 656,338 600,339 " style="fill:rgb(248,248,3)"/>
    <title>Area: 2037.5</title>
  </g>
  <g>
     <polygon onclick="alert('Area: 366.0')" points="601,301 662,300 659,338 659,304 " style="fill:rgb(129,213,21)"/>
    <title>Area: 366.0</title>
  </g>
  <g>
     <polygon onclick="alert('Area: 314.5')" points="588,259 586,292 596,292 587,292 586,289 597,288 598,259 " style="fill:rgb(225,26,21)"/>
    <title>Area: 314.5</title>
  </g>
  <g>
     <polygon onclick="alert('Area: 3869.0')" points="345,237 294,248 316,319 368,306 " style="fill:rgb(248,248,9)"/>
    <title>Area: 3869.0</title>
  </g>
  <g>
     <polygon onclick="alert('Area: 4532.5')" points="606,224 602,292 665,292 674,224 " style="fill:rgb(236,247,7)"/>
    <title>Area: 4532.5</title>
  </g>
  <g>
     <polygon onclick="alert('Area: 467.0')" points="674,225 663,293 602,291 663,288 " style="fill:rgb(129,214,24)"/>
    <title>Area: 467.0</title>
  </g>
  <g>
     <polygon onclick="alert('Area: 4054.0')" points="607,224 671,225 662,288 602,287 " style="fill:rgb(250,250,4)"/>
    <title>Area: 4054.0</title>
  </g>
  <g>
     <polygon onclick="alert('Area: 328.0')" points="590,224 587,254 598,255 600,224 " style="fill:rgb(226,20,69)"/>
    <title>Area: 328.0</title>
  </g>
  <g>
     <polygon onclick="alert('Area: 153.5')" points="590,240 599,241 599,253 597,255 592,254 590,255 588,253 588,245 " style="fill:rgb(227,20,122)"/>
    <title>Area: 153.5</title>
  </g>
  <g>
     <polygon onclick="alert('Area: 169.0')" points="591,224 600,225 600,236 598,240 589,239 589,226 " style="fill:rgb(227,18,20)"/>
    <title>Area: 169.0</title>
  </g>
  <g>
     <polygon onclick="alert('Area: 4667.0')" points="515,224 515,291 582,292 585,224 " style="fill:rgb(236,248,7)"/>
    <title>Area: 4667.0</title>
  </g>
  <g>
     <polygon onclick="alert('Area: 4117.0')" points="519,225 584,224 582,287 520,287 " style="fill:rgb(250,250,3)"/>
    <title>Area: 4117.0</title>
  </g>
  <g>
     <polygon onclick="alert('Area: 542.0')" points="515,225 519,287 582,291 516,291 " style="fill:rgb(139,223,32)"/>
    <title>Area: 542.0</title>
  </g>
  <g>
     <polygon onclick="alert('Area: 381.5')" points="425,224 425,255 439,253 441,251 438,242 438,224 " style="fill:rgb(230,230,18)"/>
    <title>Area: 381.5</title>
  </g>
  <g>
     <polygon onclick="alert('Area: 4664.5')" points="419,224 356,234 376,303 420,293 421,268 425,292 449,289 441,257 420,267 " style="fill:rgb(243,234,35)"/>
    <title>Area: 4664.5</title>
  </g>
  <g>
     <polygon onclick="alert('Area: 248.5')" points="446,281 448,289 446,291 425,291 425,282 428,280 444,279 " style="fill:rgb(207,67,19)"/>
    <title>Area: 248.5</title>
  </g>
  <g>
     <polygon onclick="alert('Area: 415.0')" points="426,257 441,258 445,276 443,280 425,280 " style="fill:rgb(234,232,11)"/>
    <title>Area: 415.0</title>
  </g>
  <g>
     <polygon onclick="alert('Area: 810.5')" points="378,228 384,245 384,259 365,267 355,236 " style="fill:rgb(239,239,125)"/>
    <title>Area: 810.5</title>
  </g>
  <g>
     <polygon onclick="alert('Area: 3179.0')" points="418,224 420,292 377,303 365,268 384,259 380,229 " style="fill:rgb(248,248,10)"/>
    <title>Area: 3179.0</title>
  </g>
  <g>
     <polygon onclick="alert('Area: 104.0')" points="291,218 293,223 291,224 290,244 291,241 293,245 298,245 299,247 " style="fill:rgb(124,209,61)"/>
    <title>Area: 104.0</title>
  </g>
  <g>
     <polygon onclick="alert('Area: 7347.5')" points="515,164 515,219 600,219 604,189 647,206 611,220 605,196 606,220 675,219 680,163 604,163 604,189 591,163 588,219 586,164 " style="fill:rgb(235,237,22)"/>
    <title>Area: 7347.5</title>
  </g>
  <g>
     <polygon onclick="alert('Area: 266.5')" points="591,193 601,194 599,219 591,219 589,216 " style="fill:rgb(222,10,10)"/>
    <title>Area: 266.5</title>
  </g>
  <g>
     <polygon onclick="alert('Area: 3077.0')" points="605,165 677,163 672,217 680,163 675,218 648,219 634,193 607,193 " style="fill:rgb(245,247,11)"/>
    <title>Area: 3077.0</title>
  </g>
  <g>
     <polygon onclick="alert('Area: 3960.5')" points="515,165 519,217 521,163 584,163 586,217 516,219 " style="fill:rgb(180,219,63)"/>
    <title>Area: 3960.5</title>
  </g>
  <g>
     <polygon onclick="alert('Area: 7593.5')" points="440,163 452,291 507,291 507,224 449,220 502,219 488,193 507,219 508,165 " style="fill:rgb(240,247,16)"/>
    <title>Area: 7593.5</title>
  </g>
  <g>
     <polygon onclick="alert('Area: 121.5')" points="505,263 508,264 507,291 503,288 503,269 506,266 503,265 " style="fill:rgb(140,217,46)"/>
    <title>Area: 121.5</title>
  </g>
  <g>
     <polygon onclick="alert('Area: 3889.0')" points="442,224 504,226 503,291 452,290 " style="fill:rgb(250,250,5)"/>
    <title>Area: 3889.0</title>
  </g>
  <g>
     <polygon onclick="alert('Area: 232.0')" points="506,163 508,217 505,219 503,165 " style="fill:rgb(137,219,49)"/>
    <title>Area: 232.0</title>
  </g>
  <g>
     <polygon onclick="alert('Area: 3154.5')" points="441,163 504,166 504,192 487,193 486,219 440,218 " style="fill:rgb(248,248,9)"/>
    <title>Area: 3154.5</title>
  </g>
  <g>
     <polygon onclick="alert('Area: 155.5')" points="425,163 422,204 425,219 436,219 435,193 426,193 435,196 426,205 425,164 436,165 431,192 436,165 " style="fill:rgb(219,22,56)"/>
    <title>Area: 155.5</title>
  </g>
  <g>
     <polygon onclick="alert('Area: 147.5')" points="426,205 435,206 436,210 435,219 425,218 " style="fill:rgb(230,16,122)"/>
    <title>Area: 147.5</title>
  </g>
  <g>
     <polygon onclick="alert('Area: 4142.0')" points="351,162 354,229 420,219 420,163 " style="fill:rgb(250,250,8)"/>
    <title>Area: 4142.0</title>
  </g>
  <g>
     <polygon onclick="alert('Area: 183.5')" points="278,162 303,243 344,233 342,163 311,162 342,164 345,232 304,243 280,175 309,162 " style="fill:rgb(195,113,78)"/>
    <title>Area: 183.5</title>
  </g>
  <g>
     <polygon onclick="alert('Area: 172.5')" points="277,165 279,162 309,163 308,167 285,167 282,174 " style="fill:rgb(225,44,22)"/>
    <title>Area: 172.5</title>
  </g>
  <g>
     <polygon onclick="alert('Area: 2803.5')" points="606,122 606,157 684,155 687,122 " style="fill:rgb(243,247,8)"/>
    <title>Area: 2803.5</title>
  </g>
  <g>
     <polygon onclick="alert('Area: 555.0')" points="541,122 515,122 515,157 528,157 529,150 532,154 531,123 " style="fill:rgb(129,214,43)"/>
    <title>Area: 555.0</title>
  </g>
  <g>
     <polygon onclick="alert('Area: 450.0')" points="516,122 528,123 527,157 515,156 " style="fill:rgb(125,233,19)"/>
    <title>Area: 450.0</title>
  </g>
  <g>
     <polygon onclick="alert('Area: 2387.0')" points="351,122 351,156 420,156 421,122 " style="fill:rgb(247,247,9)"/>
    <title>Area: 2387.0</title>
  </g>
  <g>
     <polygon onclick="alert('Area: 312.0')" points="260,122 261,134 271,154 274,152 273,122 " style="fill:rgb(127,222,36)"/>
    <title>Area: 312.0</title>
  </g>
  <g>
     <polygon onclick="alert('Area: 197.0')" points="426,89 427,105 424,115 438,117 437,97 433,95 437,98 432,99 427,95 " style="fill:rgb(121,121,120)"/>
    <title>Area: 197.0</title>
  </g>
  <g>
     <polygon onclick="alert('Area: 3451.0')" points="606,76 618,77 605,79 606,117 689,117 694,80 679,77 691,76 " style="fill:rgb(213,26,14)"/>
    <title>Area: 3451.0</title>
  </g>
  <g>
     <polygon onclick="alert('Area: 2965.5')" points="605,83 688,81 686,116 607,117 " style="fill:rgb(241,7,3)"/>
    <title>Area: 2965.5</title>
  </g>
  <g>
     <polygon onclick="alert('Area: 389.5')" points="605,79 692,78 689,116 688,81 " style="fill:rgb(37,146,24)"/>
    <title>Area: 389.5</title>
  </g>
  <g>
     <polygon onclick="alert('Area: 4075.5')" points="440,76 440,117 465,121 440,122 439,158 426,122 425,156 441,156 441,122 481,123 481,157 507,157 507,122 465,120 507,117 507,76 " style="fill:rgb(213,109,46)"/>
    <title>Area: 4075.5</title>
  </g>
  <g>
     <polygon onclick="alert('Area: 147.5')" points="505,122 508,124 507,157 503,156 503,126 " style="fill:rgb(138,218,40)"/>
    <title>Area: 147.5</title>
  </g>
  <g>
     <polygon onclick="alert('Area: 785.5')" points="482,122 504,123 502,157 481,156 " style="fill:rgb(242,244,6)"/>
    <title>Area: 785.5</title>
  </g>
  <g>
     <polygon onclick="alert('Area: 364.5')" points="427,122 437,124 437,154 433,157 425,155 " style="fill:rgb(233,17,17)"/>
    <title>Area: 364.5</title>
  </g>
  <g>
     <polygon onclick="alert('Area: 2231.5')" points="440,85 507,84 507,116 441,117 " style="fill:rgb(233,20,5)"/>
    <title>Area: 2231.5</title>
  </g>
  <g>
     <polygon onclick="alert('Area: 491.0')" points="440,77 506,76 499,78 507,83 441,84 " style="fill:rgb(28,120,34)"/>
    <title>Area: 491.0</title>
  </g>
  <g>
     <polygon onclick="alert('Area: 2884.5')" points="351,76 351,117 421,117 422,77 " style="fill:rgb(105,223,15)"/>
    <title>Area: 2884.5</title>
  </g>
  <g>
     <polygon onclick="alert('Area: 2320.0')" points="351,85 421,84 421,116 352,117 " style="fill:rgb(126,247,5)"/>
    <title>Area: 2320.0</title>
  </g>
  <g>
     <polygon onclick="alert('Area: 497.5')" points="351,79 417,76 422,83 352,84 " style="fill:rgb(18,137,29)"/>
    <title>Area: 497.5</title>
  </g>
  <g>
     <polygon onclick="alert('Area: 2740.5')" points="509,76 599,78 513,89 515,117 600,117 600,76 " style="fill:rgb(225,16,19)"/>
    <title>Area: 2740.5</title>
  </g>
  <g>
     <polygon onclick="alert('Area: 2646.5')" points="515,98 527,97 528,84 599,84 600,116 516,117 " style="fill:rgb(241,10,5)"/>
    <title>Area: 2646.5</title>
  </g>
  <g>
     <polygon onclick="alert('Area: 274.5')" points="342,76 256,76 313,79 257,80 257,116 309,117 313,91 308,117 260,117 259,81 " style="fill:rgb(96,72,87)"/>
    <title>Area: 274.5</title>
  </g>
  <g>
     <polygon onclick="alert('Area: 181.0')" points="317,79 341,76 341,78 329,78 341,78 342,83 318,84 " style="fill:rgb(28,126,61)"/>
    <title>Area: 181.0</title>
  </g>
  <g>
     <polygon onclick="alert('Area: 535.0')" points="199,69 304,366 200,69 700,69 700,414 350,491 305,370 349,491 701,421 701,69 " style="fill:rgb(213,206,94)"/>
    <title>Area: 535.0</title>
  </g>
  <g>
     <polygon onclick="alert('Area: 311.5')" points="515,398 544,396 589,420 551,403 " style="fill:rgb(43,197,197)"/>
    <title>Area: 311.5</title>
  </g>
  <g>
     <polygon onclick="alert('Area: 0.0')" points="869,482 870,481 883,481 885,483 885,486 884,487 870,487 " style="fill:rgb(38,224,224)"/>
  </g>
  <g>
     <polygon onclick="alert('Area: 0.0')" points="869,471 870,470 884,470 885,475 883,477 870,477 " style="fill:rgb(132,132,132)"/>
  </g>
  <g>
     <polygon onclick="alert('Area: 0.0')" points="868,460 870,458 883,458 885,460 885,465 884,466 870,466 868,464 " style="fill:rgb(190,190,190)"/>
  </g>
  <g>
     <polygon onclick="alert('Area: 0.0')" points="869,449 870,448 883,448 884,453 883,454 870,454 " style="fill:rgb(30,144,30)"/>
  </g>
  <g>
     <polygon onclick="alert('Area: 0.0')" points="869,438 870,437 883,437 884,442 883,443 870,443 " style="fill:rgb(130,229,34)"/>
  </g>
  <g>
     <polygon onclick="alert('Area: 0.0')" points="869,427 870,426 883,426 885,428 885,430 883,433 871,433 869,431 " style="fill:rgb(153,114,101)"/>
  </g>
  <g>
     <polygon onclick="alert('Area: 0.0')" points="869,416 870,415 883,415 884,420 883,421 870,421 " style="fill:rgb(174,99,31)"/>
  </g>
  <g>
     <polygon onclick="alert('Area: 0.0')" points="869,405 871,403 883,403 884,404 884,409 883,410 871,410 869,408 " style="fill:rgb(106,134,160)"/>
  </g>
  <g>
     <polygon onclick="alert('Area: 0.0')" points="869,379 870,378 883,378 884,383 883,384 870,384 " style="fill:rgb(176,65,34)"/>
  </g>
  <g>
     <polygon onclick="alert('Area: 0.0')" points="868,369 870,367 883,367 884,372 879,374 870,373 868,371 " style="fill:rgb(206,185,124)"/>
  </g>
  <g>
     <polygon onclick="alert('Area: 0.0')" points="869,357 870,356 883,356 884,361 883,362 870,362 " style="fill:rgb(206,72,34)"/>
  </g>
  <g>
     <polygon onclick="alert('Area: 0.0')" points="869,346 870,345 883,345 884,350 883,351 870,351 " style="fill:rgb(228,35,182)"/>
  </g>
  <g>
     <polygon onclick="alert('Area: 0.0')" points="869,335 870,334 883,334 884,339 883,340 870,340 " style="fill:rgb(224,32,127)"/>
  </g>
  <g>
     <polygon onclick="alert('Area: 0.0')" points="869,324 870,323 883,323 884,328 883,329 870,329 " style="fill:rgb(231,34,34)"/>
  </g>
  <g>
     <polygon onclick="alert('Area: 0.0')" points="868,314 870,312 883,312 884,317 883,318 870,318 868,316 " style="fill:rgb(232,136,160)"/>
  </g>
  <g>
     <polygon onclick="alert('Area: 0.0')" points="868,303 870,301 883,301 884,306 883,307 870,307 868,305 " style="fill:rgb(221,131,154)"/>
  </g>
  <g>
     <polygon onclick="alert('Area: 0.0')" points="868,292 870,290 883,290 884,295 883,296 870,296 868,294 " style="fill:rgb(229,159,134)"/>
  </g>
  <g>
     <polygon onclick="alert('Area: 0.0')" points="868,269 870,267 883,267 884,274 883,275 876,274 871,275 868,273 " style="fill:rgb(224,149,224)"/>
  </g>
  <g>
     <polygon onclick="alert('Area: 0.0')" points="869,258 870,257 883,257 884,262 883,263 870,263 " style="fill:rgb(231,230,39)"/>
  </g>
  Sorry, your browser does not support inline SVG.
</svg>